<mxfile host="app.diagrams.net" modified="2023-07-20T06:22:13.323Z" agent="Mozilla/5.0 (Macintosh; Intel Mac OS X 10_15_7) AppleWebKit/537.36 (KHTML, like Gecko) Chrome/114.0.0.0 Safari/537.36" etag="b77egNmfjIakNIBVW4eE" version="21.6.3" type="github">
  <diagram name="페이지-1" id="Fc2mxhNKbtDIbvcY0PrK">
    <mxGraphModel dx="534" dy="734" grid="1" gridSize="10" guides="1" tooltips="1" connect="1" arrows="1" fold="1" page="1" pageScale="1" pageWidth="827" pageHeight="1169" math="0" shadow="0">
      <root>
        <mxCell id="0" />
        <mxCell id="1" parent="0" />
        <mxCell id="IOMtd_nr19Y01q_HOAz_-117" value="" style="whiteSpace=wrap;html=1;strokeColor=none;fillColor=#E6E6E6;" vertex="1" parent="1">
          <mxGeometry x="1700" y="500" width="130" height="240" as="geometry" />
        </mxCell>
        <mxCell id="IOMtd_nr19Y01q_HOAz_-44" value="" style="rounded=0;whiteSpace=wrap;html=1;fillColor=none;dashed=1;strokeColor=default;" vertex="1" parent="1">
          <mxGeometry x="920" y="440" width="760" height="320" as="geometry" />
        </mxCell>
        <mxCell id="IOMtd_nr19Y01q_HOAz_-42" value="&amp;nbsp;ECS Cluster" style="sketch=0;points=[[0,0,0],[0.25,0,0],[0.5,0,0],[0.75,0,0],[1,0,0],[0,1,0],[0.25,1,0],[0.5,1,0],[0.75,1,0],[1,1,0],[0,0.25,0],[0,0.5,0],[0,0.75,0],[1,0.25,0],[1,0.5,0],[1,0.75,0]];outlineConnect=0;fontColor=#232F3E;gradientColor=#F78E04;gradientDirection=north;fillColor=#D05C17;strokeColor=#ffffff;dashed=0;verticalLabelPosition=middle;verticalAlign=middle;align=left;html=1;fontSize=12;fontStyle=0;aspect=fixed;shape=mxgraph.aws4.resourceIcon;resIcon=mxgraph.aws4.ecs;labelPosition=right;spacingTop=5;" vertex="1" parent="1">
          <mxGeometry x="920" y="440" width="26" height="26" as="geometry" />
        </mxCell>
        <mxCell id="IOMtd_nr19Y01q_HOAz_-46" value="Auto Scaling group" style="points=[[0,0],[0.25,0],[0.5,0],[0.75,0],[1,0],[1,0.25],[1,0.5],[1,0.75],[1,1],[0.75,1],[0.5,1],[0.25,1],[0,1],[0,0.75],[0,0.5],[0,0.25]];outlineConnect=0;gradientColor=none;html=1;whiteSpace=wrap;fontSize=12;fontStyle=0;container=1;pointerEvents=0;collapsible=0;recursiveResize=0;shape=mxgraph.aws4.groupCenter;grIcon=mxgraph.aws4.group_auto_scaling_group;grStroke=1;strokeColor=#D86613;fillColor=none;verticalAlign=top;align=center;fontColor=#D86613;dashed=1;spacingTop=25;" vertex="1" parent="1">
          <mxGeometry x="940" y="480" width="720" height="260" as="geometry" />
        </mxCell>
        <mxCell id="IOMtd_nr19Y01q_HOAz_-90" value="Private subnet" style="points=[[0,0],[0.25,0],[0.5,0],[0.75,0],[1,0],[1,0.25],[1,0.5],[1,0.75],[1,1],[0.75,1],[0.5,1],[0.25,1],[0,1],[0,0.75],[0,0.5],[0,0.25]];outlineConnect=0;gradientColor=none;html=1;whiteSpace=wrap;fontSize=12;fontStyle=0;container=1;pointerEvents=0;collapsible=0;recursiveResize=0;shape=mxgraph.aws4.group;grIcon=mxgraph.aws4.group_security_group;grStroke=0;strokeColor=#147EBA;fillColor=#E6F2F8;verticalAlign=top;align=left;spacingLeft=30;fontColor=#147EBA;dashed=0;" vertex="1" parent="IOMtd_nr19Y01q_HOAz_-46">
          <mxGeometry x="370" y="50" width="330" height="190" as="geometry" />
        </mxCell>
        <mxCell id="IOMtd_nr19Y01q_HOAz_-61" value="Private subnet" style="points=[[0,0],[0.25,0],[0.5,0],[0.75,0],[1,0],[1,0.25],[1,0.5],[1,0.75],[1,1],[0.75,1],[0.5,1],[0.25,1],[0,1],[0,0.75],[0,0.5],[0,0.25]];outlineConnect=0;gradientColor=none;html=1;whiteSpace=wrap;fontSize=12;fontStyle=0;container=1;pointerEvents=0;collapsible=0;recursiveResize=0;shape=mxgraph.aws4.group;grIcon=mxgraph.aws4.group_security_group;grStroke=0;strokeColor=#147EBA;fillColor=#E6F2F8;verticalAlign=top;align=left;spacingLeft=30;fontColor=#147EBA;dashed=0;" vertex="1" parent="1">
          <mxGeometry x="960" y="530" width="330" height="190" as="geometry" />
        </mxCell>
        <mxCell id="IOMtd_nr19Y01q_HOAz_-53" value="" style="sketch=0;points=[[0,0,0],[0.25,0,0],[0.5,0,0],[0.75,0,0],[1,0,0],[0,1,0],[0.25,1,0],[0.5,1,0],[0.75,1,0],[1,1,0],[0,0.25,0],[0,0.5,0],[0,0.75,0],[1,0.25,0],[1,0.5,0],[1,0.75,0]];outlineConnect=0;fontColor=#232F3E;gradientColor=#F78E04;gradientDirection=north;fillColor=#D05C17;strokeColor=#ffffff;dashed=0;verticalLabelPosition=bottom;verticalAlign=top;align=center;html=1;fontSize=12;fontStyle=0;aspect=fixed;shape=mxgraph.aws4.resourceIcon;resIcon=mxgraph.aws4.auto_scaling2;" vertex="1" parent="IOMtd_nr19Y01q_HOAz_-61">
          <mxGeometry x="50" y="67" width="22" height="22" as="geometry" />
        </mxCell>
        <mxCell id="IOMtd_nr19Y01q_HOAz_-54" value="" style="rounded=0;whiteSpace=wrap;html=1;fillColor=none;strokeColor=default;" vertex="1" parent="IOMtd_nr19Y01q_HOAz_-61">
          <mxGeometry x="50" y="67" width="90" height="70" as="geometry" />
        </mxCell>
        <mxCell id="IOMtd_nr19Y01q_HOAz_-62" value="Task" style="shape=image;html=1;verticalAlign=top;verticalLabelPosition=bottom;labelBackgroundColor=none;imageAspect=0;aspect=fixed;image=https://cdn1.iconfinder.com/data/icons/unicons-line-vol-3/24/docker-128.png;horizontal=1;spacing=-5;" vertex="1" parent="IOMtd_nr19Y01q_HOAz_-61">
          <mxGeometry x="75" y="75" width="40" height="40" as="geometry" />
        </mxCell>
        <mxCell id="IOMtd_nr19Y01q_HOAz_-47" value="EC2" style="points=[[0,0],[0.25,0],[0.5,0],[0.75,0],[1,0],[1,0.25],[1,0.5],[1,0.75],[1,1],[0.75,1],[0.5,1],[0.25,1],[0,1],[0,0.75],[0,0.5],[0,0.25]];outlineConnect=0;gradientColor=none;html=1;whiteSpace=wrap;fontSize=12;fontStyle=0;container=1;pointerEvents=0;collapsible=0;recursiveResize=0;shape=mxgraph.aws4.group;grIcon=mxgraph.aws4.group_ec2_instance_contents;strokeColor=#D86613;fillColor=none;verticalAlign=top;align=left;spacingLeft=30;fontColor=#D86613;dashed=0;" vertex="1" parent="IOMtd_nr19Y01q_HOAz_-61">
          <mxGeometry x="30" y="33" width="130" height="124" as="geometry" />
        </mxCell>
        <mxCell id="IOMtd_nr19Y01q_HOAz_-100" value="&lt;font style=&quot;font-size: 12px; font-weight: normal;&quot;&gt;Service&lt;/font&gt;" style="text;strokeColor=none;fillColor=none;html=1;fontSize=24;fontStyle=1;verticalAlign=middle;align=center;" vertex="1" parent="IOMtd_nr19Y01q_HOAz_-47">
          <mxGeometry x="40" y="101" width="50" height="15" as="geometry" />
        </mxCell>
        <mxCell id="IOMtd_nr19Y01q_HOAz_-101" value="" style="sketch=0;points=[[0,0,0],[0.25,0,0],[0.5,0,0],[0.75,0,0],[1,0,0],[0,1,0],[0.25,1,0],[0.5,1,0],[0.75,1,0],[1,1,0],[0,0.25,0],[0,0.5,0],[0,0.75,0],[1,0.25,0],[1,0.5,0],[1,0.75,0]];outlineConnect=0;fontColor=#232F3E;gradientColor=#F78E04;gradientDirection=north;fillColor=#D05C17;strokeColor=#ffffff;dashed=0;verticalLabelPosition=bottom;verticalAlign=top;align=center;html=1;fontSize=12;fontStyle=0;aspect=fixed;shape=mxgraph.aws4.resourceIcon;resIcon=mxgraph.aws4.auto_scaling2;" vertex="1" parent="1">
          <mxGeometry x="1150" y="597" width="22" height="22" as="geometry" />
        </mxCell>
        <mxCell id="IOMtd_nr19Y01q_HOAz_-102" value="" style="rounded=0;whiteSpace=wrap;html=1;fillColor=none;strokeColor=default;" vertex="1" parent="1">
          <mxGeometry x="1150" y="597" width="90" height="70" as="geometry" />
        </mxCell>
        <mxCell id="IOMtd_nr19Y01q_HOAz_-103" value="Task" style="shape=image;html=1;verticalAlign=top;verticalLabelPosition=bottom;labelBackgroundColor=none;imageAspect=0;aspect=fixed;image=https://cdn1.iconfinder.com/data/icons/unicons-line-vol-3/24/docker-128.png;horizontal=1;spacing=-5;" vertex="1" parent="1">
          <mxGeometry x="1175" y="605" width="40" height="40" as="geometry" />
        </mxCell>
        <mxCell id="IOMtd_nr19Y01q_HOAz_-104" value="EC2" style="points=[[0,0],[0.25,0],[0.5,0],[0.75,0],[1,0],[1,0.25],[1,0.5],[1,0.75],[1,1],[0.75,1],[0.5,1],[0.25,1],[0,1],[0,0.75],[0,0.5],[0,0.25]];outlineConnect=0;gradientColor=none;html=1;whiteSpace=wrap;fontSize=12;fontStyle=0;container=1;pointerEvents=0;collapsible=0;recursiveResize=0;shape=mxgraph.aws4.group;grIcon=mxgraph.aws4.group_ec2_instance_contents;strokeColor=#D86613;fillColor=none;verticalAlign=top;align=left;spacingLeft=30;fontColor=#D86613;dashed=0;" vertex="1" parent="1">
          <mxGeometry x="1130" y="563" width="130" height="124" as="geometry" />
        </mxCell>
        <mxCell id="IOMtd_nr19Y01q_HOAz_-105" value="&lt;font style=&quot;font-size: 12px; font-weight: normal;&quot;&gt;Service&lt;/font&gt;" style="text;strokeColor=none;fillColor=none;html=1;fontSize=24;fontStyle=1;verticalAlign=middle;align=center;" vertex="1" parent="IOMtd_nr19Y01q_HOAz_-104">
          <mxGeometry x="40" y="101" width="50" height="15" as="geometry" />
        </mxCell>
        <mxCell id="IOMtd_nr19Y01q_HOAz_-106" value="" style="sketch=0;points=[[0,0,0],[0.25,0,0],[0.5,0,0],[0.75,0,0],[1,0,0],[0,1,0],[0.25,1,0],[0.5,1,0],[0.75,1,0],[1,1,0],[0,0.25,0],[0,0.5,0],[0,0.75,0],[1,0.25,0],[1,0.5,0],[1,0.75,0]];outlineConnect=0;fontColor=#232F3E;gradientColor=#F78E04;gradientDirection=north;fillColor=#D05C17;strokeColor=#ffffff;dashed=0;verticalLabelPosition=bottom;verticalAlign=top;align=center;html=1;fontSize=12;fontStyle=0;aspect=fixed;shape=mxgraph.aws4.resourceIcon;resIcon=mxgraph.aws4.auto_scaling2;" vertex="1" parent="1">
          <mxGeometry x="1340" y="597" width="22" height="22" as="geometry" />
        </mxCell>
        <mxCell id="IOMtd_nr19Y01q_HOAz_-107" value="" style="rounded=0;whiteSpace=wrap;html=1;fillColor=none;strokeColor=default;" vertex="1" parent="1">
          <mxGeometry x="1340" y="597" width="90" height="70" as="geometry" />
        </mxCell>
        <mxCell id="IOMtd_nr19Y01q_HOAz_-108" value="Task" style="shape=image;html=1;verticalAlign=top;verticalLabelPosition=bottom;labelBackgroundColor=none;imageAspect=0;aspect=fixed;image=https://cdn1.iconfinder.com/data/icons/unicons-line-vol-3/24/docker-128.png;horizontal=1;spacing=-5;" vertex="1" parent="1">
          <mxGeometry x="1365" y="605" width="40" height="40" as="geometry" />
        </mxCell>
        <mxCell id="IOMtd_nr19Y01q_HOAz_-109" value="EC2" style="points=[[0,0],[0.25,0],[0.5,0],[0.75,0],[1,0],[1,0.25],[1,0.5],[1,0.75],[1,1],[0.75,1],[0.5,1],[0.25,1],[0,1],[0,0.75],[0,0.5],[0,0.25]];outlineConnect=0;gradientColor=none;html=1;whiteSpace=wrap;fontSize=12;fontStyle=0;container=1;pointerEvents=0;collapsible=0;recursiveResize=0;shape=mxgraph.aws4.group;grIcon=mxgraph.aws4.group_ec2_instance_contents;strokeColor=#D86613;fillColor=none;verticalAlign=top;align=left;spacingLeft=30;fontColor=#D86613;dashed=0;" vertex="1" parent="1">
          <mxGeometry x="1320" y="563" width="130" height="124" as="geometry" />
        </mxCell>
        <mxCell id="IOMtd_nr19Y01q_HOAz_-110" value="&lt;font style=&quot;font-size: 12px; font-weight: normal;&quot;&gt;Service&lt;/font&gt;" style="text;strokeColor=none;fillColor=none;html=1;fontSize=24;fontStyle=1;verticalAlign=middle;align=center;" vertex="1" parent="IOMtd_nr19Y01q_HOAz_-109">
          <mxGeometry x="40" y="101" width="50" height="15" as="geometry" />
        </mxCell>
        <mxCell id="IOMtd_nr19Y01q_HOAz_-111" value="" style="sketch=0;points=[[0,0,0],[0.25,0,0],[0.5,0,0],[0.75,0,0],[1,0,0],[0,1,0],[0.25,1,0],[0.5,1,0],[0.75,1,0],[1,1,0],[0,0.25,0],[0,0.5,0],[0,0.75,0],[1,0.25,0],[1,0.5,0],[1,0.75,0]];outlineConnect=0;fontColor=#232F3E;gradientColor=#F78E04;gradientDirection=north;fillColor=#D05C17;strokeColor=#ffffff;dashed=0;verticalLabelPosition=bottom;verticalAlign=top;align=center;html=1;fontSize=12;fontStyle=0;aspect=fixed;shape=mxgraph.aws4.resourceIcon;resIcon=mxgraph.aws4.auto_scaling2;" vertex="1" parent="1">
          <mxGeometry x="1480" y="597" width="22" height="22" as="geometry" />
        </mxCell>
        <mxCell id="IOMtd_nr19Y01q_HOAz_-112" value="" style="rounded=0;whiteSpace=wrap;html=1;fillColor=none;strokeColor=default;" vertex="1" parent="1">
          <mxGeometry x="1480" y="597" width="90" height="70" as="geometry" />
        </mxCell>
        <mxCell id="IOMtd_nr19Y01q_HOAz_-113" value="Task" style="shape=image;html=1;verticalAlign=top;verticalLabelPosition=bottom;labelBackgroundColor=none;imageAspect=0;aspect=fixed;image=https://cdn1.iconfinder.com/data/icons/unicons-line-vol-3/24/docker-128.png;horizontal=1;spacing=-5;" vertex="1" parent="1">
          <mxGeometry x="1505" y="605" width="40" height="40" as="geometry" />
        </mxCell>
        <mxCell id="IOMtd_nr19Y01q_HOAz_-114" value="EC2" style="points=[[0,0],[0.25,0],[0.5,0],[0.75,0],[1,0],[1,0.25],[1,0.5],[1,0.75],[1,1],[0.75,1],[0.5,1],[0.25,1],[0,1],[0,0.75],[0,0.5],[0,0.25]];outlineConnect=0;gradientColor=none;html=1;whiteSpace=wrap;fontSize=12;fontStyle=0;container=1;pointerEvents=0;collapsible=0;recursiveResize=0;shape=mxgraph.aws4.group;grIcon=mxgraph.aws4.group_ec2_instance_contents;strokeColor=#D86613;fillColor=none;verticalAlign=top;align=left;spacingLeft=30;fontColor=#D86613;dashed=0;" vertex="1" parent="1">
          <mxGeometry x="1460" y="563" width="130" height="124" as="geometry" />
        </mxCell>
        <mxCell id="IOMtd_nr19Y01q_HOAz_-115" value="&lt;font style=&quot;font-size: 12px; font-weight: normal;&quot;&gt;Service&lt;/font&gt;" style="text;strokeColor=none;fillColor=none;html=1;fontSize=24;fontStyle=1;verticalAlign=middle;align=center;" vertex="1" parent="IOMtd_nr19Y01q_HOAz_-114">
          <mxGeometry x="40" y="101" width="50" height="15" as="geometry" />
        </mxCell>
        <mxCell id="IOMtd_nr19Y01q_HOAz_-116" value="User Service Task" style="sketch=0;outlineConnect=0;fontColor=#999999;gradientColor=none;fillColor=#D45B07;strokeColor=none;dashed=0;verticalLabelPosition=bottom;verticalAlign=top;align=center;html=1;fontSize=10;fontStyle=0;aspect=fixed;pointerEvents=1;shape=mxgraph.aws4.ecs_task;" vertex="1" parent="1">
          <mxGeometry x="1750" y="540" width="23.13" height="30" as="geometry" />
        </mxCell>
        <mxCell id="IOMtd_nr19Y01q_HOAz_-119" value="Product Service Task" style="sketch=0;outlineConnect=0;fontColor=#999999;gradientColor=none;fillColor=#D45B07;strokeColor=none;dashed=0;verticalLabelPosition=bottom;verticalAlign=top;align=center;html=1;fontSize=10;fontStyle=0;aspect=fixed;pointerEvents=1;shape=mxgraph.aws4.ecs_task;" vertex="1" parent="1">
          <mxGeometry x="1750" y="600" width="23.13" height="30" as="geometry" />
        </mxCell>
        <mxCell id="IOMtd_nr19Y01q_HOAz_-120" value="Cart Service Task" style="sketch=0;outlineConnect=0;fontColor=#999999;gradientColor=none;fillColor=#D45B07;strokeColor=none;dashed=0;verticalLabelPosition=bottom;verticalAlign=top;align=center;html=1;fontSize=10;fontStyle=0;aspect=fixed;pointerEvents=1;shape=mxgraph.aws4.ecs_task;" vertex="1" parent="1">
          <mxGeometry x="1750" y="660" width="23.13" height="30" as="geometry" />
        </mxCell>
        <mxCell id="IOMtd_nr19Y01q_HOAz_-121" value="&lt;font style=&quot;font-size: 12px;&quot;&gt;ECS Task Definitions&lt;/font&gt;" style="text;html=1;strokeColor=none;fillColor=none;align=center;verticalAlign=middle;whiteSpace=wrap;rounded=0;" vertex="1" parent="1">
          <mxGeometry x="1700.78" y="500" width="128.44" height="30" as="geometry" />
        </mxCell>
      </root>
    </mxGraphModel>
  </diagram>
</mxfile>
